HIERARCHY
ROOT Hips
{
    OFFSET 0.000000 0.000000 0.000000
    CHANNELS 6 Xposition Yposition Zposition Zrotation Xrotation Yrotation
    JOINT Spine
    {
        OFFSET -0.000000 7.236184 0.000000
        CHANNELS 3 Zrotation Xrotation Yrotation
        JOINT Spine1
        {
            OFFSET -0.000000 20.420147 0.000000
            CHANNELS 3 Zrotation Xrotation Yrotation
            JOINT Neck
            {
                OFFSET -0.000000 20.336288 1.848754
                CHANNELS 3 Zrotation Xrotation Yrotation
                JOINT Head
                {
                    OFFSET -0.000000 12.354461 -1.764923
                    CHANNELS 3 Zrotation Xrotation Yrotation
                    End Site
                    {
                        OFFSET -0.000000 22.061537 0.000000
                    }
                }
            }
            JOINT LeftShoulder
            {
                OFFSET 3.573296 18.396038 -0.314103
                CHANNELS 3 Zrotation Xrotation Yrotation
                JOINT LeftArm
                {
                    OFFSET 10.880760 0.000000 0.000000
                    CHANNELS 3 Zrotation Xrotation Yrotation
                    JOINT LeftForeArm
                    {
                        OFFSET 27.185530 0.000000 0.000000
                        CHANNELS 3 Zrotation Xrotation Yrotation
                        JOINT LeftHand
                        {
                            OFFSET 27.825975 0.000000 0.000000
                            CHANNELS 3 Zrotation Xrotation Yrotation
                            End Site
                            {
                                OFFSET 13.236923 0.000000 0.000000
                            }
                        }
                    }
                }
            }
            JOINT RightShoulder
            {
                OFFSET -3.474926 18.396038 -0.314103
                CHANNELS 3 Zrotation Xrotation Yrotation
                JOINT RightArm
                {
                    OFFSET -10.880760 0.000000 0.000000
                    CHANNELS 3 Zrotation Xrotation Yrotation
                    JOINT RightForeArm
                    {
                        OFFSET -27.185530 0.000000 0.000000
                        CHANNELS 3 Zrotation Xrotation Yrotation
                        JOINT RightHand
                        {
                            OFFSET -27.825975 0.000000 0.000000
                            CHANNELS 3 Zrotation Xrotation Yrotation
                            End Site
                            {
                                OFFSET -13.236923 0.000000 0.000000
                            }
                        }
                    }
                }
            }
        }
    }
    JOINT LeftUpLeg
    {
        OFFSET 8.824615 0.000000 0.000000
        CHANNELS 3 Zrotation Xrotation Yrotation
        JOINT LeftLeg
        {
            OFFSET -0.000000 -35.111282 0.000000
            CHANNELS 3 Zrotation Xrotation Yrotation
            JOINT LeftFoot
            {
                OFFSET -0.000000 -42.324711 0.000000
                CHANNELS 3 Zrotation Xrotation Yrotation
                JOINT LeftToeBase
                {
                    OFFSET -0.000000 -5.735999 13.236923
                    CHANNELS 3 Zrotation Xrotation Yrotation
                    End Site
                    {
                        OFFSET -0.000000 0.000000 3.529846
                    }
                }
            }
        }
    }
    JOINT RightUpLeg
    {
        OFFSET -8.824615 0.000000 0.000000
        CHANNELS 3 Zrotation Xrotation Yrotation
        JOINT RightLeg
        {
            OFFSET -0.000000 -35.111282 0.000000
            CHANNELS 3 Zrotation Xrotation Yrotation
            JOINT RightFoot
            {
                OFFSET -0.000000 -42.324711 0.000000
                CHANNELS 3 Zrotation Xrotation Yrotation
                JOINT RightToeBase
                {
                    OFFSET -0.000000 -5.735999 13.236923
                    CHANNELS 3 Zrotation Xrotation Yrotation
                    End Site
                    {
                        OFFSET -0.000000 0.000000 3.529846
                    }
                }
            }
        }
    }
}
MOTION
Frames:    11
Frame Time:    0.008333
-0.332816    83.980667    101.007210    -3.349920    -4.971118    158.397919    -7.777403    -7.602399    -10.944730    3.042331    4.001080    -10.533597    8.461423    -0.407679    20.208553    0.326813    -2.189546    19.776745    14.077734    -2.483879    -22.740383    -29.128084    -26.177599    -49.560722    28.318106    -58.255859    -70.934349    9.058822    -45.222828    5.305720    3.084832    10.325189    -14.225376    29.386326    2.074291    4.165326    -14.506582    -15.269995    48.170654    21.392904    -8.604113    1.542098    7.887543    -3.598270    5.738500    -1.663870    17.067434    26.292440    -13.418057    -6.312286    -15.214394    -1.213444    -4.333195    1.356004    -4.696126    -12.298005    6.249257    0.756994    18.991961    8.012531    -0.135020    -8.941255    -13.396362    -2.252634    -0.776757    2.438959    
-0.219874    83.941078    101.028297    -3.368208    -4.855886    157.781006    -7.743024    -7.581058    -11.099701    2.790388    4.182483    -10.687925    8.780504    -0.547893    20.700272    0.252953    -2.136083    20.216263    13.682930    -1.669445    -23.284256    -30.411053    -26.135754    -50.356045    28.082937    -59.048309    -73.315666    9.418324    -45.744591    5.350620    3.499482    10.535597    -14.466377    30.294828    3.243250    4.317361    -14.372732    -15.307646    48.133999    20.434443    -8.716721    1.570001    7.997890    -3.458074    5.954339    -1.827885    17.276304    26.644745    -13.456365    -6.351596    -15.267019    -1.257985    -4.378603    1.405902    -4.507812    -12.542426    6.634204    0.669825    19.435074    8.305564    -0.257671    -9.046280    -13.459443    -2.241785    -0.791320    2.427262    
-0.108980    83.897858    101.050064    -3.381324    -4.742317    157.177872    -7.700530    -7.555808    -11.249323    2.536695    4.356619    -10.836673    9.064126    -0.680429    21.172155    0.205209    -2.127758    20.644606    13.310155    -0.889749    -23.796114    -31.747654    -26.037718    -51.140411    27.808437    -59.823570    -75.676231    9.823249    -46.277691    5.426834    3.899469    10.758584    -14.700720    31.220972    4.440475    4.484131    -14.257091    -15.379257    48.010094    19.269749    -8.867394    1.625747    8.117803    -3.323178    6.179293    -1.998918    17.491621    26.974266    -13.489764    -6.404891    -15.324944    -1.306831    -4.417453    1.460601    -4.312751    -12.791873    7.025240    0.584394    19.894966    8.589654    -0.382449    -9.159290    -13.531419    -2.229804    -0.805953    2.414340    
-0.001128    83.851135    101.072433    -3.390032    -4.632173    156.594574    -7.653231    -7.527128    -11.393250    2.287451    4.521701    -10.979478    9.309546    -0.806036    21.619547    0.180276    -2.161988    21.056892    12.959620    -0.158169    -24.269794    -33.126640    -25.881861    -51.905117    27.481091    -60.577122    -78.010956    10.299008    -46.824615    5.555582    4.285213    10.988258    -14.924355    32.149994    5.645774    4.663866    -14.155190    -15.481265    47.800129    17.904663    -9.055263    1.709047    8.245533    -3.194800    6.409542    -2.175333    17.710068    27.278650    -13.518815    -6.473279    -15.386471    -1.358579    -4.448178    1.518528    -4.113601    -13.045070    7.414149    0.500922    20.367439    8.863797    -0.507047    -9.279025    -13.608750    -2.216331    -0.820557    2.399801    
0.104721    83.800125    101.095474    -3.395265    -4.524654    156.026321    -7.603629    -7.495693    -11.533859    2.043877    4.680281    -11.118670    9.517978    -0.927730    22.046116    0.175183    -2.236778    21.456141    12.626127    0.529291    -24.709850    -34.559780    -25.667362    -52.653587    27.081852    -61.317783    -80.358192    10.887127    -47.397091    5.766244    4.663888    11.223316    -15.137694    33.084808    6.859408    4.858881    -14.059031    -15.610735    47.503441    16.321810    -9.282283    1.819151    8.380920    -3.070812    6.646212    -2.357638    17.931492    27.561916    -13.544806    -6.558399    -15.452375    -1.413031    -4.469135    1.579454    -3.910019    -13.304566    7.800348    0.418810    20.856796    9.132335    -0.632318    -9.406303    -13.690494    -2.201210    -0.836024    2.383481    
0.207772    83.744957    101.118782    -3.397289    -4.420533    155.478775    -7.554691    -7.462148    -11.670940    1.811318    4.831934    -11.254099    9.688593    -1.046392    22.448193    0.185945    -2.347654    21.838198    12.310983    1.167128    -25.114693    -36.030724    -25.400675    -53.373707    26.596249    -62.038670    -82.716385    11.620860    -47.994320    6.086733    5.036259    11.459034    -15.336938    34.011147    8.059551    5.068078    -13.962736    -15.762089    47.123531    14.532655    -9.546437    1.953136    8.521534    -2.950666    6.886945    -2.542477    18.151604    27.823093    -13.569112    -6.659862    -15.523337    -1.468787    -4.478473    1.641804    -3.704561    -13.567228    8.175179    0.337782    21.357807    9.394867    -0.756826    -9.539315    -13.773251    -2.185524    -0.853031    2.366552    
0.307105    83.686081    101.141830    -3.396077    -4.320681    154.958023    -7.508693    -7.427266    -11.803845    1.594671    4.976182    -11.385180    9.822593    -1.161701    22.822273    0.206412    -2.489228    22.198471    12.015010    1.752681    -25.484592    -37.516254    -25.094418    -54.052402    26.014523    -62.728985    -85.077332    12.524276    -48.609222    6.539576    5.402459    11.691694    -15.519354    34.913765    9.222227    5.290980    -13.862240    -15.928856    46.667164    12.561727    -9.843460    2.105914    8.664833    -2.833841    7.128774    -2.726073    18.365789    28.061140    -13.592659    -6.776194    -15.599407    -1.524185    -4.475441    1.703717    -3.500217    -13.828850    8.530715    0.258389    21.863501    9.650266    -0.879343    -9.675817    -13.854690    -2.170899    -0.872893    2.350782    
0.400353    83.625237    101.163673    -3.391729    -4.227147    154.476974    -7.467844    -7.392612    -11.929770    1.400585    5.110717    -11.509253    9.918544    -1.274031    23.159941    0.235995    -2.649648    22.528494    11.742150    2.278744    -25.815329    -38.967396    -24.770948    -54.670502    25.343536    -63.365707    -87.391663    13.585538    -49.219704    7.124643    5.755681    11.915101    -15.680959    35.765617    10.309518    5.523342    -13.758329    -16.102203    46.152729    10.479892    -10.161980    2.267456    8.805713    -2.721611    7.364770    -2.901887    18.566910    28.272089    -13.615949    -6.902915    -15.678709    -1.577001    -4.460459    1.762701    -3.303253    -14.080709    8.855053    0.182240    22.358053    9.893295    -0.996660    -9.811156    -13.931312    -2.159411    -0.896234    2.338418    
0.500040    83.553268    101.186966    -3.383032    -4.127074    153.972900    -7.427654    -7.353315    -12.066500    1.205902    5.254175    -11.643977    9.989338    -1.398752    23.505520    0.270229    -2.851489    22.870340    11.452943    2.818910    -26.152716    -40.580921    -24.397993    -55.307205    24.463511    -64.022026    -89.997665    15.016162    -49.897125    7.973608    6.148805    12.160976    -15.842747    36.679050    11.456990    5.806382    -13.636132    -16.304304    45.499138    7.972194    -10.548408    2.451923    8.962991    -2.597177    7.627838    -3.092097    18.780437    28.481926    -13.642956    -7.059675    -15.772456    -1.633717    -4.428772    1.825979    -3.087835    -14.356278    9.186193    0.098674    22.909306    10.158796    -1.124663    -9.963984    -14.012381    -2.151243    -0.927558    2.329674    
0.590613    83.481552    101.207817    -3.371218    -4.035676    153.524445    -7.394764    -7.315981    -12.193174    1.041437    5.385335    -11.768847    10.023665    -1.521847    23.805115    0.307719    -3.055246    23.170963    11.188688    3.296000    -26.445486    -42.097900    -24.047077    -55.861412    23.483915    -64.580490    -92.514206    16.602512    -50.524944    8.968554    6.523616    12.391956    -15.980024    37.508060    12.480458    6.100257    -13.517763    -16.501757    44.803074    5.438171    -10.940862    2.625787    9.110707    -2.478734    7.877064    -3.264861    18.972137    28.656675    -13.669736    -7.221225    -15.864244    -1.684710    -4.387310    1.882820    -2.888400    -14.611222    9.470490    0.020444    23.429474    10.406602    -1.242987    -10.109643    -14.084868    -2.148084    -0.961415    2.326364    
0.677952    83.406105    101.227341    -3.355763    -3.946545    153.101685    -7.366603    -7.278433    -12.318274    0.895647    5.513507    -11.892327    10.029123    -1.651863    24.080282    0.345203    -3.269317    23.450438    10.929248    3.748352    -26.715679    -43.603340    -23.708523    -56.367901    22.352680    -65.069939    -95.097366    18.439487    -51.125431    10.169678    6.905987    12.623902    -16.103390    38.306168    13.443529    6.427314    -13.402713    -16.705019    44.024361    2.738427    -11.358172    2.790735    9.256471    -2.358042    8.127740    -3.428908    19.153847    28.807745    -13.698012    -7.395344    -15.957648    -1.732686    -4.334300    1.936236    -2.693465    -14.860802    9.725751    -0.057462    23.949520    10.653114    -1.358718    -10.256563    -14.152679    -2.148849    -0.998818    2.327315    
